<svg id="Design" xmlns="http://www.w3.org/2000/svg" viewBox="0 0 42.29 42.33"><defs><style>.cls-1{fill:#fff;}</style></defs><circle class="cls-1" cx="5.42" cy="5.42" r="5.42"/><circle class="cls-1" cx="5.42" cy="36.92" r="5.42"/><path class="cls-1" d="M36.88,0a5.37,5.37,0,0,0-3.66,1.43A5.72,5.72,0,0,1,29,3.27a5.7,5.7,0,0,1-4.2-1.84,5.41,5.41,0,1,0,.27,7.71h0a5.72,5.72,0,0,1,7.85,0h0A5.41,5.41,0,1,0,36.88,0Z"/><path class="cls-1" d="M21.15,15.81a5.35,5.35,0,0,0-3.66,1.43,5.72,5.72,0,0,1-8.41,0,5.42,5.42,0,1,0,.27,7.7h0a5.73,5.73,0,0,1,7.86,0h0a5.41,5.41,0,1,0,3.94-9.13Z"/></svg>