<svg xmlns="http://www.w3.org/2000/svg" width="146.406" height="27.566" viewBox="0 0 146.406 27.566">
  <g id="Group_122" data-name="Group 122" transform="translate(-102.635 -31.363)">
    <path id="Path_1" data-name="Path 1" d="M119.228,110.208H107.481a.152.152,0,0,1-.152-.152V103.1a.152.152,0,0,1,.152-.152h19.692a.153.153,0,0,0,.152-.153V98.865a.152.152,0,0,0-.152-.152H102.787a.152.152,0,0,0-.152.152v26.5a.152.152,0,0,0,.152.152h4.39a.152.152,0,0,0,.152-.152V114.532a.152.152,0,0,1,.152-.152h11.747a.151.151,0,0,0,.151-.152V110.36a.151.151,0,0,0-.151-.152" transform="translate(0 -67)" fill="#fff"/>
    <path id="Path_2" data-name="Path 2" d="M133.031,105.589c-6.221,0-11.176,4.1-11.176,10.17s4.955,10.17,11.176,10.17c6.184,0,11.138-4.1,11.138-10.17s-4.954-10.17-11.138-10.17m0,16.5c-3.837,0-6.892-2.347-6.892-6.333s3.055-6.333,6.892-6.333c3.8,0,6.854,2.347,6.854,6.333s-3.054,6.333-6.854,6.333" transform="translate(0 -67)" fill="#fff"/>
    <path id="Path_3" data-name="Path 3" d="M161.074,105.936c-1.052-.188-7.055-.75-9.631,3.109a.151.151,0,0,1-.277-.084v-2.847a.152.152,0,0,0-.153-.152h-4.165a.152.152,0,0,0-.152.152v19.253a.152.152,0,0,0,.152.152h4.165a.152.152,0,0,0,.153-.152v-7.675c0-4.626,1.8-8.234,9.872-7.937a.153.153,0,0,0,.159-.151v-3.519a.15.15,0,0,0-.123-.149" transform="translate(0 -67)" fill="#fff"/>
    <path id="Path_4" data-name="Path 4" d="M190.416,105.589c-6.668,0-11.287,4.433-11.287,10.17,0,6.034,4.768,10.17,11.287,10.17,5.179,0,8.837-2.789,10.081-5.795a.153.153,0,0,0-.071-.194l-3.307-1.757a.15.15,0,0,0-.209.076,6.7,6.7,0,0,1-6.494,3.87c-3.577,0-6.332-1.86-7-4.879a.155.155,0,0,1,.152-.187h17.2a.154.154,0,0,0,.153-.153V115.5c0-5.625-4.061-9.909-10.506-9.909m6,8.121H183.773a.155.155,0,0,1-.147-.2c.92-2.738,3.548-4.194,6.567-4.194,3.58,0,5.967,2.212,6.376,4.216a.153.153,0,0,1-.152.18" transform="translate(0 -67)" fill="#fff"/>
    <path id="Path_5" data-name="Path 5" d="M215.052,105.589a9.5,9.5,0,0,0-6.971,2.662.15.15,0,0,1-.256-.107v-2.032a.15.15,0,0,0-.15-.15h-4.17a.15.15,0,0,0-.15.15v19.257a.15.15,0,0,0,.15.15h4.17a.15.15,0,0,0,.15-.15v-9.684c0-3.614,2.049-6,5.849-6,3.613,0,5.4,2.458,5.4,5.923v9.759a.15.15,0,0,0,.15.15H223.4a.151.151,0,0,0,.151-.15v-10.5c0-5.476-3.055-9.276-8.494-9.276" transform="translate(0 -67)" fill="#fff"/>
    <path id="Path_6" data-name="Path 6" d="M248.889,98.772h-4.167a.152.152,0,0,0-.152.151v9.163a.151.151,0,0,1-.254.112,10.472,10.472,0,0,0-7.345-2.609c-6.743,0-10.729,4.619-10.729,10.17s3.986,10.17,10.729,10.17a10.476,10.476,0,0,0,7.345-2.609.151.151,0,0,1,.254.111v1.936a.152.152,0,0,0,.152.152h4.167a.152.152,0,0,0,.152-.152V98.923a.152.152,0,0,0-.152-.151m-4.1,17.136c0,3.576-3.129,6.3-7.19,6.3-3.837,0-7.115-2.309-7.115-6.444s3.278-6.445,7.115-6.445c4.061,0,7.19,2.72,7.19,6.3Z" transform="translate(0 -67)" fill="#fff"/>
    <path id="Path_7" data-name="Path 7" d="M178.975,105.961H171.26v-.223c0-2.335,1.329-3.842,3.929-3.948h1.234l5.194.043a.139.139,0,0,0,.139-.139V98.519a.139.139,0,0,0-.139-.139l-6.148-.017c-.466,0-.916.023-1.358.061-4.214.355-7.21,2.445-7.21,7.165v.372h-3.922a.154.154,0,0,0-.153.154v3.493a.152.152,0,0,0,.153.153h3.769a.153.153,0,0,1,.153.154v15.45a.155.155,0,0,0,.153.155h4.052a.155.155,0,0,0,.154-.155v-15.45a.153.153,0,0,1,.153-.154h7.562a.152.152,0,0,0,.153-.153v-3.493a.154.154,0,0,0-.153-.154" transform="translate(0 -67)" fill="#fff"/>
  </g>
</svg>
