<svg width="58" height="58" viewBox="0 0 58 58" fill="none" xmlns="http://www.w3.org/2000/svg">
<path d="M0.501109 28.708C0.501109 23.129 2.15548 17.6753 5.25502 13.0365C8.35455 8.39771 12.76 4.78221 17.9143 2.64721C23.0687 0.512217 28.7404 -0.0464222 34.2122 1.04199C39.684 2.1304 44.7102 4.817 48.6552 8.76196C52.6001 12.7069 55.2866 17.733 56.375 23.2048C57.4634 28.6767 56.9049 34.3483 54.7699 39.5027C52.6349 44.657 49.0194 49.0626 44.3806 52.1621C39.7418 55.2616 34.2881 56.916 28.7091 56.916C25.0048 56.916 21.3367 56.1864 17.9143 54.7688C14.492 53.3512 11.3823 51.2734 8.76295 48.654C6.14359 46.0347 4.06591 42.925 2.64832 39.5027C1.23074 36.0803 0.501108 32.4123 0.501109 28.708Z" fill="white"/>
<path d="M0.501109 28.708C0.501109 23.129 2.15548 17.6753 5.25502 13.0365C8.35455 8.39771 12.76 4.78221 17.9143 2.64721C23.0687 0.512217 28.7404 -0.0464222 34.2122 1.04199C39.684 2.1304 44.7102 4.817 48.6552 8.76196C52.6001 12.7069 55.2866 17.733 56.375 23.2048C57.4634 28.6767 56.9049 34.3483 54.7699 39.5027C52.6349 44.657 49.0194 49.0626 44.3806 52.1621C39.7418 55.2616 34.2881 56.916 28.7091 56.916C25.0048 56.916 21.3367 56.1864 17.9143 54.7688C14.492 53.3512 11.3823 51.2734 8.76295 48.654C6.14359 46.0347 4.06591 42.925 2.64832 39.5027C1.23074 36.0803 0.501108 32.4123 0.501109 28.708Z" stroke="black"/>
<path d="M17.3192 28.708L27.6591 39.048L28.9721 37.736L20.9411 29.653L40.0992 29.653L40.0992 27.7631L20.9411 27.7631L28.9721 19.6801L27.6591 18.368L17.3192 28.708Z" fill="black"/>
</svg>
