<svg width="58" height="58" viewBox="0 0 58 58" fill="none" xmlns="http://www.w3.org/2000/svg">
<path d="M0.501104 28.708C0.501103 23.129 2.15547 17.6753 5.25501 13.0365C8.35454 8.39772 12.76 4.78222 17.9143 2.64722C23.0686 0.512223 28.7403 -0.0464173 34.2122 1.04199C39.684 2.13041 44.7102 4.817 48.6552 8.76196C52.6001 12.7069 55.2866 17.733 56.375 23.2048C57.4634 28.6766 56.9049 34.3483 54.7699 39.5027C52.6349 44.657 49.0194 49.0626 44.3806 52.1621C39.7418 55.2616 34.2881 56.916 28.7091 56.916C25.0048 56.916 21.3367 56.1864 17.9143 54.7688C14.492 53.3512 11.3823 51.2734 8.76295 48.6541C6.14359 46.0347 4.06591 42.925 2.64832 39.5027C1.23074 36.0803 0.501104 32.4123 0.501104 28.708Z" fill="white"/>
<path d="M0.501104 28.708C0.501103 23.129 2.15547 17.6753 5.25501 13.0365C8.35454 8.39772 12.76 4.78222 17.9143 2.64722C23.0686 0.512223 28.7403 -0.0464173 34.2122 1.04199C39.684 2.13041 44.7102 4.817 48.6552 8.76196C52.6001 12.7069 55.2866 17.733 56.375 23.2048C57.4634 28.6766 56.9049 34.3483 54.7699 39.5027C52.6349 44.657 49.0194 49.0626 44.3806 52.1621C39.7418 55.2616 34.2881 56.916 28.7091 56.916C25.0048 56.916 21.3367 56.1864 17.9143 54.7688C14.492 53.3512 11.3823 51.2734 8.76295 48.6541C6.14359 46.0347 4.06591 42.925 2.64832 39.5027C1.23074 36.0803 0.501104 32.4123 0.501104 28.708Z" stroke="black"/>
<path d="M40.0992 28.708L29.7592 18.368L28.4462 19.6801L36.4772 27.7631L17.3192 27.7631L17.3192 29.653L36.4772 29.653L28.4462 37.736L29.7592 39.048L40.0992 28.708Z" fill="black"/>
</svg>
