<svg xmlns="http://www.w3.org/2000/svg" width="1200" height="347.819" viewBox="0 0 1200 347.819">
  <path id="Path_21" data-name="Path 21" d="M1186.631,1826.193a173.257,173.257,0,0,0-239.855-5.043c-.518.475-1.032.985-1.584,1.579a127.355,127.355,0,0,1-187.443-.013c-.484-.523-.994-1.034-1.56-1.557A172.847,172.847,0,0,0,638.942,1775.4c-.341,0-.68.01-1.02.012s-.68-.012-1.02-.012a172.842,172.842,0,0,0-117.238,45.747c-.528.484-1.05,1-1.583,1.579a127.357,127.357,0,0,1-187.418.015c-.488-.53-1.007-1.05-1.586-1.585a173.462,173.462,0,1,0,6.087,249.5q.87-.7,1.684-1.465a127.372,127.372,0,0,1,175.029-.007q.813.769,1.69,1.471A172.925,172.925,0,0,0,636.9,2122.222c.34,0,.679-.01,1.02-.012s.679.012,1.02.012a172.925,172.925,0,0,0,123.334-51.567q.871-.7,1.683-1.464a127.372,127.372,0,0,1,175.018-.017q.82.775,1.7,1.483a173.389,173.389,0,1,0,245.95-244.464Z" transform="translate(-37.921 -1774.903)" fill="none" stroke="#000" stroke-width="1"/>
</svg>